<svg width="93" height="40" xmlns="http://www.w3.org/2000/svg" fill="none">

 <g>
  <title>Layer 1</title>
  <path id="svg_2" fill="#3B413A" d="m10.1857,28.7032c0.0105,4.4934 0.1852,7.0864 0.5201,7.7073c0.596,1.1056 2.7288,1.4975 3.9468,1.6327l0.049,0.0054c0.4907,0.0546 1.6398,0.182 1.6398,0.554c0,0.0856 -0.0093,0.1323 -0.0151,0.1534c-0.0389,0.0166 -0.1455,0.0425 -0.4325,0.0425c-0.0837,0 -0.171,-0.0018 -0.2612,-0.0036c-0.1033,-0.002 -0.2102,-0.0041 -0.3196,-0.0041l-5.5556,0l-5.63439,0c-0.10937,0 -0.21626,0.0022 -0.31972,0.0041c-0.09008,0.0019 -0.17735,0.0036 -0.2611,0.0036c-0.28672,0 -0.3933,-0.0258 -0.43221,-0.0425c-0.00602,-0.0211 -0.01515,-0.0678 -0.01515,-0.1536c0,-0.372 1.14898,-0.4994 1.63972,-0.5538l0.04867,-0.0054c1.2181,-0.1352 3.35075,-0.5271 3.94703,-1.6329c0.1238,-0.2296 0.5005,-0.9283 0.56764,-7.7326c0.01577,-1.6098 0.00789,-3.3062 -0.02169,-4.6541c-0.04898,-2.2279 -0.12162,-2.3859 -0.18565,-2.5251c-0.08561,-0.1859 -0.24968,-0.315 -0.43886,-0.3454c-2.20415,-0.3559 -4.5211,-1.6555 -6.19787,-3.4765c-1.80359,-1.9589 -2.66014,-4.2469 -2.4117,-6.4428c0.25341,-2.24028 2.45684,-9.07546 3.21324,-10.03214l12.92574,0c0.7564,0.95679 2.9597,7.79208 3.2132,10.03214c0.5259,4.6481 -4.0504,9.055 -8.4935,9.8901c-0.1903,0.0358 -0.3483,0.166 -0.4337,0.357c-0.2932,0.6565 -0.282,6.9544 -0.2814,7.2223z"/>
  <path id="svg_3" fill="#D6E5D8" d="m16.1293,16.646c0.7666,-0.9816 1.3779,-1.8502 1.4861,-3.0046c0.0089,-0.0955 0.0238,-0.437 -0.2757,-0.437c-4.2691,-2.0278 -11.5338,2.6782 -15.25253,0.0016c-0.32783,0 -0.27656,0.3338 -0.26712,0.4354c0.10959,1.1841 0.73825,2.0807 1.53222,3.0849c1.32955,1.6814 3.07481,2.7743 5.01641,2.9237c0.32907,0.0253 0.87128,0.0409 1.41495,0.0409c0.51767,0 0.98887,-0.0145 1.26047,-0.0389c1.9832,-0.178 3.7543,-1.3018 5.0852,-3.006z"/>
  <text font-style="normal" font-weight="normal" transform="matrix(0.732388 0 0 0.726457 -19.6849 -0.270022)" xml:space="preserve" text-anchor="start" font-family="'Rounded Mplus 1c'" font-size="24" stroke-width="0" id="svg_4" y="21.41203" x="56.38941" fill="#3B413A">restaurant</text>
  <text font-style="normal" font-weight="normal" transform="matrix(0.954054 0 0 0.667994 -7.24618 -5.90609)" xml:space="preserve" text-anchor="start" font-family="serif" font-size="24" id="svg_5" y="52.23523" x="37.73586" stroke-width="0" fill="#3B413A">Assyl</text>
 </g>
</svg>